<?xml version="1.0" encoding="UTF-8" standalone="no"?>
<svg
	version="1.1"
	id="baselayer"
	x="0px"
	y="0px"
	viewBox="0 0 247.40907 82.967001"
	xml:space="preserve"
	width="247.40907"
	height="82.967003"
	xmlns="http://www.w3.org/2000/svg"
	xmlns:svg="http://www.w3.org/2000/svg">
<g
  transform="translate(-174.71293,-379.5165)">
	<path
		id="logoClaim"
		fill="#FFFFFF"
		d="m 418.421,453.578 c -1.293,-0.508 -1.587,-0.819 -1.587,-1.244 0,-0.459 0.36,-0.786 1.178,-0.786 0.819,0 1.522,0.246 2.226,0.737 l 0.737,-1.293 c -0.77,-0.557 -1.833,-0.95 -2.914,-0.95 -1.718,0 -2.93,0.802 -2.93,2.341 0,1.358 0.671,1.98 2.521,2.701 1.244,0.474 1.997,0.785 1.997,1.44 0,0.606 -0.507,0.949 -1.571,0.949 -0.802,0 -1.703,-0.294 -2.505,-0.851 l -0.769,1.277 c 0.867,0.638 2.128,1.097 3.29,1.097 1.686,0 3.225,-0.639 3.225,-2.537 0,-1.621 -0.983,-2.145 -2.898,-2.881 m -8.986,3.879 c -0.622,0 -0.884,-0.229 -0.884,-1.031 v -4.665 h 2.128 v -1.539 h -2.128 v -3.339 l -1.653,0.884 v 2.455 h -1.228 v 1.539 h 1.228 v 4.959 c 0,1.539 0.736,2.276 1.931,2.276 0.671,0 1.244,-0.164 1.653,-0.393 l 0.197,-1.49 c -0.311,0.18 -0.802,0.344 -1.244,0.344 m -13.176,-3.732 c 0.147,-1.375 0.834,-2.161 1.964,-2.161 1.391,0 1.948,0.982 2.029,2.161 z m 2.078,-3.683 c -2.226,0 -3.764,1.572 -3.764,4.485 0,2.848 1.702,4.469 3.715,4.469 1.31,0 2.21,-0.41 2.963,-1.13 l -0.999,-1.08 c -0.572,0.425 -1.145,0.687 -1.866,0.687 -1.047,0 -1.98,-0.703 -2.16,-2.357 h 5.68 c 0.016,-0.18 0.049,-0.458 0.049,-0.769 0,-2.324 -1.179,-4.305 -3.618,-4.305 m -10.705,3.536 c -1.293,-0.508 -1.587,-0.819 -1.587,-1.244 0,-0.459 0.36,-0.786 1.178,-0.786 0.819,0 1.523,0.246 2.226,0.737 l 0.737,-1.293 c -0.769,-0.557 -1.833,-0.95 -2.914,-0.95 -1.718,0 -2.93,0.802 -2.93,2.341 0,1.358 0.672,1.98 2.521,2.701 1.244,0.474 1.997,0.785 1.997,1.44 0,0.606 -0.507,0.949 -1.571,0.949 -0.802,0 -1.703,-0.294 -2.505,-0.851 l -0.769,1.277 c 0.868,0.638 2.128,1.097 3.29,1.097 1.686,0 3.225,-0.639 3.225,-2.537 0,-1.621 -0.982,-2.145 -2.898,-2.881 m -10.459,0 c -1.293,-0.508 -1.588,-0.819 -1.588,-1.244 0,-0.459 0.361,-0.786 1.179,-0.786 0.818,0 1.522,0.246 2.226,0.737 l 0.737,-1.293 c -0.77,-0.557 -1.834,-0.95 -2.914,-0.95 -1.719,0 -2.93,0.802 -2.93,2.341 0,1.358 0.671,1.98 2.521,2.701 1.244,0.474 1.997,0.785 1.997,1.44 0,0.606 -0.508,0.949 -1.572,0.949 -0.802,0 -1.702,-0.294 -2.504,-0.851 l -0.769,1.277 c 0.867,0.638 2.128,1.097 3.29,1.097 1.686,0 3.224,-0.639 3.224,-2.537 0,-1.621 -0.982,-2.145 -2.897,-2.881 m -11.752,-6.22 h -1.817 l -4.125,11.458 h 1.784 l 0.95,-2.718 h 4.583 l 0.966,2.718 h 1.833 z m -2.685,7.202 0.917,-2.619 c 0.295,-0.851 0.704,-2.161 0.835,-2.652 0.131,0.491 0.589,1.817 0.867,2.636 l 0.917,2.635 z m -18.201,2.881 c -1.244,0 -1.931,-0.95 -1.931,-3.11 0,-1.817 0.655,-2.734 1.866,-2.734 0.851,0 1.637,0.622 2.013,1.13 v 3.617 c -0.442,0.556 -1.146,1.097 -1.948,1.097 m 3.601,-7.219 h -1.686 v 0.802 c -0.458,-0.524 -1.276,-0.982 -2.144,-0.982 -1.768,0 -3.388,1.391 -3.388,4.338 0,3.273 1.473,4.616 3.306,4.616 0.9,0 1.604,-0.426 2.226,-0.999 v 0.147 c 0,1.785 -0.523,2.439 -2.946,2.554 l 0.573,1.277 c 3.11,-0.099 4.059,-1.359 4.059,-3.978 z m -11.719,3.667 c 0,-2.537 -1.064,-3.847 -3.061,-3.847 -0.884,0 -1.735,0.377 -2.161,0.999 v -0.819 h -1.686 v 8.594 h 1.686 v -5.026 c 0,-1.391 0.639,-2.193 1.768,-2.193 1.113,0 1.768,0.622 1.768,2.357 v 4.862 h 1.686 z m -11.933,-3.667 h -1.686 v 8.593 h 1.686 z m -0.835,-3.29 c -0.605,0 -1.096,0.491 -1.096,1.097 0,0.589 0.491,1.08 1.096,1.08 0.59,0 1.081,-0.491 1.081,-1.08 0,-0.606 -0.491,-1.097 -1.081,-1.097 m -5.679,10.41 h -3.061 c -0.426,0 -1.26,-0.016 -1.571,0 0.229,-0.261 0.687,-0.818 1.031,-1.26 l 3.601,-4.501 v -1.359 h -6.302 v 1.473 h 2.848 c 0.426,0 1.228,0.017 1.539,0 -0.229,0.262 -0.688,0.819 -1.032,1.244 l -3.682,4.502 v 1.375 h 6.629 z m -11.36,-7.12 h -1.686 v 8.593 h 1.686 z m -0.835,-3.29 c -0.605,0 -1.096,0.491 -1.096,1.097 0,0.589 0.491,1.08 1.096,1.08 0.59,0 1.081,-0.491 1.081,-1.08 0,-0.606 -0.491,-1.097 -1.081,-1.097 m -9.477,10.509 c -1.244,0 -1.931,-0.95 -1.931,-3.11 0,-1.817 0.655,-2.734 1.866,-2.734 0.851,0 1.637,0.622 2.013,1.13 v 3.617 c -0.442,0.556 -1.146,1.097 -1.948,1.097 m 3.601,-7.219 h -1.686 v 0.802 c -0.458,-0.524 -1.276,-0.982 -2.144,-0.982 -1.768,0 -3.388,1.391 -3.388,4.338 0,3.273 1.473,4.616 3.306,4.616 0.901,0 1.604,-0.426 2.226,-0.999 v 0.147 c 0,1.785 -0.523,2.439 -2.946,2.554 l 0.573,1.277 c 3.11,-0.099 4.059,-1.359 4.059,-3.978 z m -12.03,-0.18 c -0.851,0 -1.572,0.426 -1.965,0.999 v -0.819 h -1.685 v 8.594 h 1.685 v -4.911 c 0,-1.457 0.622,-2.21 1.686,-2.21 0.557,0 0.933,0.115 1.294,0.311 l 0.441,-1.604 c -0.343,-0.229 -0.769,-0.36 -1.456,-0.36 m -13.897,3.683 c 0.148,-1.375 0.835,-2.161 1.964,-2.161 1.392,0 1.948,0.982 2.03,2.161 z m 2.079,-3.683 c -2.226,0 -3.765,1.572 -3.765,4.485 0,2.848 1.703,4.469 3.716,4.469 1.309,0 2.21,-0.41 2.963,-1.13 l -0.999,-1.08 c -0.573,0.425 -1.146,0.687 -1.866,0.687 -1.047,0 -1.98,-0.703 -2.161,-2.357 h 5.68 c 0.017,-0.18 0.049,-0.458 0.049,-0.769 0,-2.324 -1.178,-4.305 -3.617,-4.305 m -8.233,3.847 c 0,-2.537 -1.064,-3.847 -3.061,-3.847 -0.884,0 -1.735,0.377 -2.161,0.999 v -0.819 h -1.686 v 8.594 h 1.686 v -5.026 c 0,-1.391 0.639,-2.193 1.768,-2.193 1.113,0 1.768,0.622 1.768,2.357 v 4.862 h 1.686 z m -11.556,3.257 h -5.909 v -3.617 h 3.29 v -1.67 h -3.29 v -2.832 h 5.663 v -1.669 h -7.382 v 11.458 h 7.628 z"
  />
</g>
<g
  transform="translate(-174.71293,-379.5165)">
	<path
		id="logoSignAbove"
		fill="#DEF34F"
		d="m 175.28,406.669 10.375,21.992 c 1.058,2.244 4.143,2.513 5.574,0.487 l 31.686,-44.837 c 1.79,-2.533 -0.93,-5.8 -3.745,-4.499 l -41.022,18.963 c -2.982,1.378 -4.27,4.923 -2.868,7.894"
  />
	<path
		id="logoSignBelow"
		fill="#DEF34F"
		d="M 226.415,435.331 216.04,413.339 c -1.058,-2.244 -4.143,-2.513 -5.574,-0.487 l -31.686,44.837 c -1.79,2.533 0.93,5.8 3.745,4.499 l 41.022,-18.963 c 2.982,-1.378 4.27,-4.923 2.868,-7.894"
  />
	<path
		id="logoText"
		fill="#FFFFFF"
		d="m 406.884,426.703 c -4.865,0 -8.24,-4.02 -8.24,-11.069 0,-7.048 3.226,-10.97 8.091,-10.97 4.864,0 8.239,4.021 8.239,11.069 0,7.049 -3.226,10.97 -8.09,10.97 m 0,-28.938 c -9.084,0 -15.388,6.75 -15.388,17.968 0,11.218 6.205,17.87 15.288,17.87 9.034,0 15.338,-6.751 15.338,-17.969 0,-11.218 -6.204,-17.869 -15.238,-17.869 m -24.868,0.546 h -6.949 v 34.746 h 6.949 z m -16.132,0 h -26.903 v 6.85 h 9.977 v 27.896 h 6.949 v -27.896 h 9.977 z m -35.589,0 h -6.85 v 14.692 c 0,1.936 0.099,6.304 0.099,7.595 -0.447,-0.894 -1.588,-2.631 -2.432,-3.922 l -12.31,-18.365 h -6.651 v 34.746 H 309 v -15.289 c 0,-1.935 -0.099,-6.303 -0.099,-7.594 0.447,0.893 1.589,2.631 2.432,3.921 l 12.757,18.962 h 6.205 z m -39.561,0 h -6.949 v 34.746 h 6.949 z m -28.392,13.501 c -5.51,-1.291 -6.999,-1.985 -6.999,-4.17 0,-1.538 1.241,-3.127 4.964,-3.127 3.177,0 5.659,1.291 7.892,3.574 l 5.014,-4.864 c -3.277,-3.425 -7.247,-5.46 -12.658,-5.46 -6.85,0 -12.409,3.871 -12.409,10.175 0,6.85 4.467,8.885 10.87,10.374 6.552,1.49 7.744,2.482 7.744,4.716 0,2.631 -1.936,3.772 -6.056,3.772 -3.326,0 -6.453,-1.141 -8.885,-3.971 l -5.013,4.468 c 2.63,3.871 7.693,6.304 13.501,6.304 9.481,0 13.65,-4.468 13.65,-11.069 0,-7.545 -6.105,-9.431 -11.615,-10.722"
 	/>
</g>
</svg>
